<svg id="visual" viewBox="0 0 960 540" width="960" height="540" xmlns="http://www.w3.org/2000/svg" xmlns:xlink="http://www.w3.org/1999/xlink" version="1.1"><rect x="0" y="0" width="960" height="540" fill="#16213E"></rect><path d="M0 326L22.8 333.7C45.7 341.3 91.3 356.7 137 357.2C182.7 357.7 228.3 343.3 274 336.7C319.7 330 365.3 331 411.2 328.8C457 326.7 503 321.3 548.8 325.5C594.7 329.7 640.3 343.3 686 345C731.7 346.7 777.3 336.3 823 336.5C868.7 336.7 914.3 347.3 937.2 352.7L960 358L960 541L937.2 541C914.3 541 868.7 541 823 541C777.3 541 731.7 541 686 541C640.3 541 594.7 541 548.8 541C503 541 457 541 411.2 541C365.3 541 319.7 541 274 541C228.3 541 182.7 541 137 541C91.3 541 45.7 541 22.8 541L0 541Z" fill="#0f3460"></path><path d="M0 379L22.8 383.5C45.7 388 91.3 397 137 399.8C182.7 402.7 228.3 399.3 274 394.7C319.7 390 365.3 384 411.2 384.2C457 384.3 503 390.7 548.8 392.3C594.7 394 640.3 391 686 387.5C731.7 384 777.3 380 823 384.2C868.7 388.3 914.3 400.7 937.2 406.8L960 413L960 541L937.2 541C914.3 541 868.7 541 823 541C777.3 541 731.7 541 686 541C640.3 541 594.7 541 548.8 541C503 541 457 541 411.2 541C365.3 541 319.7 541 274 541C228.3 541 182.7 541 137 541C91.3 541 45.7 541 22.8 541L0 541Z" fill="#1d366b"></path><path d="M0 425L22.8 429.7C45.7 434.3 91.3 443.7 137 441C182.7 438.3 228.3 423.7 274 419C319.7 414.3 365.3 419.7 411.2 421.5C457 423.3 503 421.7 548.8 424C594.7 426.3 640.3 432.7 686 431.2C731.7 429.7 777.3 420.3 823 414.3C868.7 408.3 914.3 405.7 937.2 404.3L960 403L960 541L937.2 541C914.3 541 868.7 541 823 541C777.3 541 731.7 541 686 541C640.3 541 594.7 541 548.8 541C503 541 457 541 411.2 541C365.3 541 319.7 541 274 541C228.3 541 182.7 541 137 541C91.3 541 45.7 541 22.8 541L0 541Z" fill="#2d3775"></path><path d="M0 443L22.8 442.3C45.7 441.7 91.3 440.3 137 446.8C182.7 453.3 228.3 467.7 274 473.2C319.7 478.7 365.3 475.3 411.2 472.7C457 470 503 468 548.8 465.2C594.7 462.3 640.3 458.7 686 457C731.7 455.3 777.3 455.7 823 455.3C868.7 455 914.3 454 937.2 453.5L960 453L960 541L937.2 541C914.3 541 868.7 541 823 541C777.3 541 731.7 541 686 541C640.3 541 594.7 541 548.8 541C503 541 457 541 411.2 541C365.3 541 319.7 541 274 541C228.3 541 182.7 541 137 541C91.3 541 45.7 541 22.8 541L0 541Z" fill="#3f367d"></path><path d="M0 516L22.8 515.3C45.7 514.7 91.3 513.3 137 508C182.7 502.7 228.3 493.3 274 490.8C319.7 488.3 365.3 492.7 411.2 492.8C457 493 503 489 548.8 488.2C594.7 487.3 640.3 489.7 686 491.7C731.7 493.7 777.3 495.3 823 493.3C868.7 491.3 914.3 485.7 937.2 482.8L960 480L960 541L937.2 541C914.3 541 868.7 541 823 541C777.3 541 731.7 541 686 541C640.3 541 594.7 541 548.8 541C503 541 457 541 411.2 541C365.3 541 319.7 541 274 541C228.3 541 182.7 541 137 541C91.3 541 45.7 541 22.8 541L0 541Z" fill="#533483"></path></svg>